<svg width="16" height="17" viewBox="0 0 16 17" fill="none" xmlns="http://www.w3.org/2000/svg">
<path id="Vector" d="M15 15.625L11.5441 12.1868M11.5441 12.1868C12.1353 11.5987 12.6042 10.9005 12.9241 10.1321C13.244 9.36364 13.4087 8.54006 13.4087 7.70833C13.4087 6.87661 13.244 6.05302 12.9241 5.28461C12.6042 4.51619 12.1353 3.81799 11.5441 3.22987C10.953 2.64175 10.2512 2.17523 9.47885 1.85694C8.70648 1.53866 7.87867 1.37484 7.04267 1.37484C6.20667 1.37484 5.37886 1.53866 4.6065 1.85694C3.83413 2.17523 3.13235 2.64175 2.5412 3.22987C1.34734 4.41764 0.676636 6.02858 0.676636 7.70833C0.676636 9.38808 1.34734 10.999 2.5412 12.1868C3.73507 13.3746 5.35429 14.0418 7.04267 14.0418C8.73105 14.0418 10.3503 13.3746 11.5441 12.1868Z" stroke="black" stroke-linecap="round" stroke-linejoin="round"/>
</svg>
